<?xml version="1.0" encoding="UTF-8"?>
<svg width="122px" height="50px" viewBox="0 0 122 50" xmlns="http://www.w3.org/2000/svg" xmlns:xlink="http://www.w3.org/1999/xlink" version="1.1">
 <!-- Generated by Pixelmator Pro 2.1.5 -->
 <path id="Path" d="M104.296 9 C98.064 9 92.931 14.041 92.931 20.365 92.931 26.598 97.972 31.731 104.296 31.731 110.529 31.731 115.662 26.69 115.662 20.365 115.662 14.041 110.529 9 104.296 9 M113.095 14.041 C112.545 14.408 111.904 14.774 111.262 15.141 110.896 14.408 110.437 13.674 109.887 13.033 110.346 12.758 110.804 12.391 111.171 12.116 111.996 12.575 112.637 13.308 113.095 14.041 M108.329 10.283 C109.246 10.65 110.071 11.108 110.896 11.75 110.529 12.116 110.071 12.391 109.612 12.666 109.063 12.025 108.421 11.475 107.779 10.925 107.963 10.65 108.146 10.466 108.329 10.283 M109.246 12.85 C108.604 13.216 107.963 13.399 107.321 13.674 107.046 13.033 106.771 12.391 106.404 11.841 106.771 11.658 107.138 11.475 107.413 11.2 108.054 11.658 108.696 12.208 109.246 12.85 M107.871 10.1 C107.688 10.283 107.504 10.466 107.413 10.65 106.771 10.283 106.221 9.917 105.488 9.642 106.313 9.642 107.138 9.825 107.871 10.1 M107.046 10.925 C106.771 11.108 106.496 11.291 106.221 11.383 105.855 10.833 105.488 10.375 105.121 9.825 105.763 10.1 106.404 10.466 107.046 10.925 M104.48 9.917 C104.938 10.375 105.305 10.925 105.671 11.566 105.305 11.658 104.938 11.75 104.48 11.75 Z M104.48 12.208 C104.938 12.208 105.488 12.116 105.946 11.933 106.313 12.483 106.588 13.125 106.863 13.766 106.13 13.949 105.305 14.041 104.48 14.133 Z M104.021 9.917 L104.021 11.75 C103.655 11.75 103.288 11.658 102.83 11.566 103.288 11.016 103.655 10.466 104.021 9.917 M102.463 11.383 C102.188 11.291 101.822 11.108 101.638 10.925 102.28 10.558 102.922 10.192 103.563 9.917 103.105 10.375 102.738 10.833 102.463 11.383 M103.105 9.55 C102.463 9.825 101.822 10.192 101.18 10.558 100.997 10.375 100.813 10.192 100.722 10.008 101.455 9.825 102.28 9.642 103.105 9.55 M110.896 28.981 C109.429 28.156 109.337 26.965 109.429 26.598 109.521 26.14 109.796 26.323 109.979 26.323 110.987 26.323 111.996 26.048 113.279 24.673 114.745 23.207 115.203 19.907 112.912 17.799 110.529 15.508 107.963 15.874 106.313 17.982 105.946 18.441 105.121 18.716 104.48 18.716 103.38 18.716 104.113 19.54 104.113 19.724 104.113 19.907 103.93 19.999 103.838 19.999 103.471 19.907 103.655 20.457 103.655 20.549 103.655 20.64 103.471 20.824 103.471 20.824 103.013 20.824 103.105 21.19 103.197 21.374 103.197 21.465 103.197 21.649 103.013 21.74 102.83 21.832 102.738 22.198 102.738 22.473 102.738 22.932 103.197 23.298 103.93 23.848 104.663 24.398 104.755 24.948 104.755 25.315 104.755 25.681 104.846 26.323 104.938 26.69 105.121 27.148 105.121 28.064 104.113 28.064 102.83 28.156 100.63 29.073 100.447 29.164 99.714 29.439 98.797 29.531 98.064 29.348 97.697 29.073 97.331 28.798 96.964 28.431 96.781 27.973 97.056 27.423 97.331 27.056 97.789 27.515 98.339 27.423 98.705 27.423 99.072 27.423 100.722 27.148 100.997 27.056 101.272 26.965 101.363 26.965 101.455 27.056 102.097 27.331 103.013 27.331 103.38 26.14 103.746 24.857 102.922 25.223 102.738 25.315 102.647 25.406 102.463 25.315 102.555 25.223 102.738 24.948 102.463 24.948 102.372 24.948 102.005 24.948 101.547 25.315 101.455 25.406 101.272 25.498 101.18 25.498 101.088 25.498 100.63 25.223 99.255 25.59 98.797 24.857 98.797 24.673 98.43 21.649 98.247 21.099 98.247 21.007 98.155 20.824 98.339 20.64 98.705 20.09 99.622 20.64 100.172 20.64 100.813 20.64 100.905 20.365 101.088 20.182 101.272 19.999 101.363 20.09 101.455 19.999 101.547 19.907 101.455 19.815 101.455 19.724 101.455 19.632 101.547 19.724 101.638 19.632 101.73 19.54 101.638 19.357 101.638 19.265 101.822 18.991 102.188 19.174 102.005 18.624 101.913 18.257 102.097 17.891 102.28 17.707 102.555 17.341 103.746 15.691 101.73 13.949 99.805 12.3 97.789 12.483 96.506 13.858 95.222 15.233 95.864 17.249 95.956 17.799 96.047 18.349 95.681 18.807 95.222 18.991 94.856 19.174 94.031 19.724 93.481 20.182 93.573 15.783 96.231 11.933 100.264 10.375 100.447 10.558 100.63 10.833 100.813 11.016 100.355 11.383 99.347 12.208 99.347 12.208 99.347 12.208 99.439 12.208 99.622 12.3 99.714 12.3 99.897 12.391 99.897 12.391 99.897 12.391 100.722 11.658 101.18 11.383 101.455 11.658 101.822 11.841 102.188 12.025 102.005 12.391 101.455 13.308 101.455 13.308 101.455 13.308 101.547 13.399 101.638 13.399 101.73 13.491 101.822 13.491 101.822 13.491 101.822 13.491 102.372 12.483 102.555 12.116 103.013 12.3 103.471 12.391 103.93 12.391 L103.93 14.224 C103.655 14.224 103.013 14.224 102.738 14.133 L102.555 14.133 102.647 14.316 C102.738 14.408 102.738 14.499 102.83 14.591 L103.93 14.591 103.93 17.982 104.388 17.982 104.388 17.157 C105.121 17.157 105.671 17.066 106.313 16.974 L106.954 16.424 106.588 16.424 C105.855 16.516 105.213 16.607 104.663 16.607 104.663 16.607 104.48 16.607 104.388 16.607 L104.388 14.499 C105.213 14.499 106.13 14.408 106.954 14.133 107.138 14.683 107.596 16.058 107.596 16.058 L108.054 15.874 C108.054 15.874 107.596 14.499 107.413 13.949 108.146 13.766 108.788 13.399 109.429 13.125 109.979 13.766 110.437 14.499 110.804 15.233 110.437 15.416 109.887 15.599 109.887 15.599 110.346 15.691 110.712 15.783 110.712 15.783 110.712 15.783 110.896 15.691 110.987 15.691 110.987 15.783 111.079 15.966 111.079 15.966 L111.721 16.241 111.629 16.058 C111.629 16.058 111.446 15.599 111.354 15.508 111.996 15.233 112.637 14.866 113.279 14.408 114.47 16.149 115.02 18.257 115.02 20.365 115.203 23.848 113.462 26.965 110.896 28.981" fill="#ffffff" fill-opacity="1" stroke="none"/>
 <path id="Path-1" d="M91.923 12.025 L91.74 12.208 C91.098 12.758 89.54 14.316 89.815 16.058 L89.815 16.149 C89.815 16.149 89.906 16.516 89.906 16.516 L90.09 16.332 C91.006 15.508 91.74 14.041 92.014 12.391 L92.106 11.933 Z" fill="#ffffff" fill-opacity="1" stroke="none"/>
 <path id="Path-2" d="M88.807 14.958 L88.715 15.141 C88.623 15.416 88.44 16.058 88.348 16.791 88.165 17.891 88.257 19.54 89.173 20.732 89.173 20.732 89.265 20.915 89.265 20.915 L89.356 21.099 89.54 20.365 C89.723 19.082 89.448 16.424 88.99 15.233 L88.807 14.866 Z" fill="#ffffff" fill-opacity="1" stroke="none"/>
 <path id="Path-3" d="M87.707 19.54 L87.707 19.724 C87.615 20.824 87.707 23.665 89.998 25.223 89.998 25.223 90.273 25.406 90.273 25.406 L90.273 25.04 C90.273 23.94 88.99 20.732 88.073 19.632 L87.798 19.265 Z" fill="#ffffff" fill-opacity="1" stroke="none"/>
 <path id="Path-4" d="M88.073 24.582 L88.073 24.765 C88.44 26.415 89.906 28.981 92.289 29.806 L92.656 29.898 92.564 29.531 C92.106 28.339 89.815 25.498 88.348 24.582 L88.073 24.398 Z" fill="#ffffff" fill-opacity="1" stroke="none"/>
 <path id="Path-5" d="M92.931 14.499 L92.656 14.591 C90.915 15.691 90.09 16.974 90.09 18.624 L90.09 18.991 90.365 18.807 C91.281 17.982 92.564 15.966 92.839 14.866 L92.931 14.408 Z" fill="#ffffff" fill-opacity="1" stroke="none"/>
 <path id="Path-6" d="M91.831 17.982 L91.74 18.166 C91.281 18.624 89.815 20.182 89.906 22.107 89.906 22.382 89.998 22.748 90.09 23.023 L90.181 23.298 90.365 23.023 C91.098 22.015 92.014 19.449 91.923 18.257 L91.923 17.891 Z" fill="#ffffff" fill-opacity="1" stroke="none"/>
 <path id="Path-7" d="M91.923 21.374 L91.831 21.557 C91.098 22.657 90.731 23.757 90.731 24.857 90.731 25.59 91.006 26.323 91.465 27.056 L91.648 27.331 91.74 27.056 C92.014 26.415 92.289 24.49 92.289 22.932 92.289 22.382 92.198 21.924 92.106 21.649 L92.014 21.282 Z" fill="#ffffff" fill-opacity="1" stroke="none"/>
 <path id="Path-8" d="M92.748 24.948 L92.656 25.131 C92.473 25.865 92.289 26.506 92.381 27.24 92.381 28.706 93.114 29.898 94.398 30.722 L94.581 30.814 94.673 30.539 94.673 30.264 C94.673 29.073 93.756 25.956 93.023 25.04 L92.839 24.765 Z" fill="#ffffff" fill-opacity="1" stroke="none"/>
 <path id="Path-9" d="M90.273 29.714 L90.365 29.898 C91.281 31.456 92.931 33.564 95.956 33.014 L96.231 33.014 96.047 32.831 C95.497 32.006 91.831 29.898 90.548 29.714 L90.181 29.623 Z" fill="#ffffff" fill-opacity="1" stroke="none"/>
 <path id="Path-10" d="M94.764 33.747 L94.306 33.839 94.764 34.022 C96.689 34.847 99.072 35.03 100.539 34.572 101.088 34.389 101.363 34.114 101.73 33.747 104.205 34.022 106.496 36.039 107.871 37.688 107.871 37.688 107.963 37.78 107.963 37.78 L108.054 37.78 C108.238 37.688 108.421 37.505 108.513 37.413 L108.604 37.322 108.513 37.23 C107.138 35.397 104.938 34.297 104.846 34.205 102.83 33.289 99.347 32.556 94.764 33.747" fill="#ffffff" fill-opacity="1" stroke="none"/>
 <path id="Path-11" d="M94.856 28.614 L94.856 28.798 C95.131 30.631 95.864 33.014 98.98 32.739 L99.164 32.739 99.072 32.556 C98.889 31.731 96.047 29.348 95.039 28.706 L94.764 28.523 Z" fill="#ffffff" fill-opacity="1" stroke="none"/>
 <path id="Path-12" d="M116.487 11.841 L116.578 12.3 C116.853 13.949 117.587 15.416 118.503 16.241 L118.686 16.424 C118.686 16.424 118.778 16.058 118.778 16.058 L118.778 15.966 C119.053 14.224 117.495 12.666 116.853 12.116 L116.67 11.933 Z" fill="#ffffff" fill-opacity="1" stroke="none"/>
 <path id="Path-13" d="M119.695 14.774 L119.511 15.141 C119.053 16.332 118.87 18.991 118.961 20.274 L119.145 21.007 119.236 20.915 C119.236 20.915 119.328 20.732 119.328 20.732 120.336 19.54 120.336 17.982 120.153 16.791 120.061 15.966 119.878 15.416 119.786 15.141 L119.695 14.958 Z" fill="#ffffff" fill-opacity="1" stroke="none"/>
 <path id="Path-14" d="M120.886 19.357 L120.611 19.724 C119.695 20.915 118.411 24.032 118.411 25.131 L118.411 25.498 C118.411 25.498 118.686 25.315 118.686 25.315 120.978 23.848 121.069 21.007 120.978 19.815 L120.978 19.632 Z" fill="#ffffff" fill-opacity="1" stroke="none"/>
 <path id="Path-15" d="M120.52 24.398 L120.153 24.582 C118.686 25.498 116.395 28.339 115.937 29.531 L115.845 29.898 116.212 29.806 C118.595 29.073 120.153 26.415 120.428 24.765 L120.428 24.582 Z" fill="#ffffff" fill-opacity="1" stroke="none"/>
 <path id="Path-16" d="M115.662 14.316 L115.753 14.774 C116.12 15.966 117.22 17.982 118.228 18.807 L118.503 18.991 118.503 18.624 C118.595 16.974 117.77 15.691 116.028 14.591 L115.845 14.499 Z" fill="#ffffff" fill-opacity="1" stroke="none"/>
 <path id="Path-17" d="M116.67 17.891 L116.67 18.257 C116.578 19.449 117.587 22.107 118.228 23.023 L118.411 23.298 118.503 23.023 C118.595 22.657 118.686 22.382 118.686 22.107 118.778 20.182 117.312 18.624 116.853 18.166 L116.762 18.074 Z" fill="#ffffff" fill-opacity="1" stroke="none"/>
 <path id="Path-18" d="M116.578 21.19 L116.487 21.557 C116.395 21.832 116.303 22.29 116.303 22.84 116.303 24.398 116.487 26.323 116.853 26.965 L116.945 27.24 117.128 26.965 C117.587 26.323 117.862 25.59 117.862 24.765 117.862 23.757 117.495 22.565 116.762 21.465 L116.67 21.282 Z" fill="#ffffff" fill-opacity="1" stroke="none"/>
 <path id="Path-19" d="M115.753 24.765 L115.57 25.04 C114.837 25.956 113.92 29.073 113.92 30.264 L113.92 30.539 114.012 30.814 C114.012 30.814 114.195 30.722 114.195 30.722 115.478 29.898 116.12 28.706 116.212 27.24 116.212 26.598 116.12 25.865 115.937 25.131 L115.845 24.948 Z" fill="#ffffff" fill-opacity="1" stroke="none"/>
 <path id="Path-20" d="M118.411 29.531 C118.411 29.531 118.045 29.623 118.045 29.623 116.762 29.806 113.095 31.914 112.545 32.739 L112.362 32.922 112.637 32.922 C115.662 33.472 117.312 31.364 118.228 29.806 L118.32 29.623 Z" fill="#ffffff" fill-opacity="1" stroke="none"/>
 <path id="Path-21" d="M103.838 34.205 C103.746 34.205 101.547 35.397 100.172 37.23 L100.08 37.322 100.172 37.413 C100.264 37.505 100.539 37.688 100.63 37.78 L100.722 37.78 C100.722 37.78 100.813 37.688 100.813 37.688 102.188 36.039 104.48 33.93 106.954 33.747 107.321 34.114 107.688 34.389 108.146 34.572 109.521 35.03 111.996 34.847 113.92 34.022 L114.379 33.839 113.92 33.747 C109.246 32.556 105.763 33.289 103.838 34.205" fill="#ffffff" fill-opacity="1" stroke="none"/>
 <path id="Path-22" d="M113.737 28.431 L113.462 28.614 C112.454 29.256 109.704 31.639 109.429 32.464 L109.337 32.647 109.521 32.647 C112.545 32.922 113.279 30.539 113.645 28.706 L113.645 28.523 Z" fill="#ffffff" fill-opacity="1" stroke="none"/>
 <path id="Path-23" d="M36.379 10.1 L40.229 10.1 40.229 13.583 36.379 13.583 Z M36.746 17.616 L39.954 17.616 39.954 34.664 36.746 34.664 Z" fill="#ffffff" fill-opacity="1" stroke="none"/>
 <path id="Path-24" d="M12.457 17.616 L15.665 17.616 15.665 34.664 12.549 34.664 12.549 32.189 12.457 32.189 C11.174 34.297 8.974 35.214 6.591 35.214 3.016 35.214 1 32.464 1 29.073 L1 17.616 4.208 17.616 4.208 27.698 C4.208 30.631 4.85 32.831 7.966 32.831 9.249 32.831 11.082 32.189 11.724 30.356 12.365 28.798 12.365 26.781 12.365 26.323 L12.365 17.616 Z" fill="#ffffff" fill-opacity="1" stroke="none"/>
 <path id="Path-25" d="M22.081 20.09 C23.272 17.982 25.564 17.066 27.305 17.066 28.497 17.066 33.721 17.341 33.721 22.84 L33.721 34.572 30.513 34.572 30.513 23.848 C30.513 21.007 29.322 19.54 26.572 19.54 26.572 19.54 24.831 19.449 23.456 20.824 22.997 21.282 22.081 22.015 22.081 25.406 L22.081 34.664 18.873 34.664 18.873 17.616 22.081 17.616 Z" fill="#ffffff" fill-opacity="1" stroke="none"/>
 <path id="Path-26" d="M53.427 23.023 C53.244 20.915 52.236 19.449 49.944 19.449 46.92 19.449 45.728 22.107 45.728 26.048 45.728 29.989 46.92 32.647 49.944 32.647 52.052 32.647 53.336 31.272 53.519 28.798 L56.727 28.798 C56.452 32.647 53.611 34.939 49.853 34.939 44.445 34.939 42.245 31.089 42.245 26.14 42.245 21.19 44.72 17.066 50.128 17.066 53.702 17.066 56.36 19.357 56.544 23.023 Z" fill="#ffffff" fill-opacity="1" stroke="none"/>
 <path id="Path-27" d="M61.493 26.69 C61.218 29.623 62.501 32.739 65.709 32.739 68.184 32.739 69.467 31.731 69.834 29.256 L73.225 29.256 C72.675 33.106 69.742 35.03 65.709 35.03 60.301 35.03 58.102 31.181 58.102 26.231 58.102 21.282 60.576 17.157 65.984 17.157 71.025 17.249 73.408 20.457 73.408 25.131 L73.408 26.69 Z M70.109 24.49 C70.2 21.649 68.917 19.449 65.801 19.449 63.143 19.449 61.585 21.74 61.585 24.49 Z" fill="#ffffff" fill-opacity="1" stroke="none"/>
 <path id="Path-28" d="M77.075 34.48 L77.075 19.815 74.142 19.815 74.142 17.616 77.075 17.616 77.075 13.949 C77.166 10.283 80.008 9.275 82.391 9.275 83.124 9.275 83.949 9.458 84.682 9.642 L84.682 12.3 C84.132 12.3 83.582 12.208 83.032 12.208 81.199 12.208 80.191 12.666 80.283 14.499 L80.283 17.616 84.224 17.616 84.224 19.815 80.283 19.815 80.283 34.48 Z" fill="#ffffff" fill-opacity="1" stroke="none"/>
</svg>
